<?xml version="1.0" encoding="UTF-8"?>
<svg id="Capa_1" data-name="Capa 1" xmlns="http://www.w3.org/2000/svg" viewBox="0 0 978.9 1080">
  <defs>
    
  </defs>
  <path class="cls-1" d="M926.97,610.7c29.52-7.25,51.93-32.7,51.93-64.4,0-37.31-30.32-67.63-67.61-67.63h-9.74v-66.57C901.55,184.85,716.67,0,489.43,0S77.34,184.85,77.34,412.09v66.57h-9.74c-37.28,0-67.61,30.32-67.61,67.63,0,31.82,22.57,57.34,52.25,64.47l49.18,387.31c2,16.21,9.82,30.09,20.33,41.28h-61.72c-11.22,0-20.32,9.1-20.32,20.32s9.1,20.32,20.32,20.32h858.82c11.22,0,20.32-9.1,20.32-20.32s-9.1-20.32-20.32-20.32h-53.49c10.76-11.5,18.59-25.88,20.33-42.65l41.26-386ZM117.99,412.09c0-204.8,166.62-371.45,371.45-371.45s371.47,166.65,371.47,371.45v66.57h-60.28v-79.59c0-171.62-139.6-311.23-311.2-311.23S183.48,222.68,178.69,390.14c-.08,2.99-.45,5.91-.45,8.93v79.59h-60.25v-66.57ZM682.14,409.92c-6.71,4.92-14.55,8.41-23.5,8.41-13.9,0-25.59-7.5-32.86-18.22,14.47-14.65,23.47-34.74,23.47-56.93,0-1.3-.32-2.5-.38-3.78,3.21-.82,6.31-1.98,9.78-1.98,22.31,0,40.46,18.15,40.46,40.48,0,9.61-3.85,18.07-9.47,25.02-2.62,2.21-5.16,4.47-7.49,7ZM430.94,418.63c-6.63,4.74-14.3,8.12-23.06,8.12-7.62,0-14.35-2.69-20.45-6.38,1.03-4.92,1.5-10.04,1.57-15.25,13.3-2.5,25.27-8.43,35.44-16.58,3.33,3.14,6.83,6.09,10.65,8.64,3.07,2.05,6.42,3.69,9.75,5.31-2.94,6.69-8.02,11.92-13.9,16.14ZM348.48,403.94c0,9.53-3.81,17.94-9.34,24.86-7.41,9.26-18.32,15.57-31.09,15.57-10.09,0-19.05-4.07-26.14-10.21-3.02-7.09-7.3-13.46-12.12-19.34-1.01-3.55-2.2-7.03-2.2-10.88,0-20.6,15.74-37.02,35.71-39.48,5.95,10.77,14.06,20.14,24.05,27.2,6.3,4.46,13.3,7.82,20.73,10.35.04.67.4,1.24.4,1.93ZM333.56,325.57c0-22.33,18.13-40.48,40.43-40.48,12.46,0,23.21,5.99,30.64,14.9,1.36,1.64,2.47,3.45,3.57,5.29,3.61,6.06,6.24,12.74,6.24,20.29s-2.67,14.29-6.32,20.37c-1.63,2.7-3.07,5.54-5.27,7.78-6.26,6.42-14.78,10.17-24.12,11.32-1.63.2-3.07.95-4.75.95-.08,0-.15-.04-.21-.04-15.29-.09-28.14-8.96-34.94-21.57-2.77-5.13-4.58-10.74-4.88-16.89-.04-.67-.4-1.24-.4-1.93ZM556.75,305.06c3.68-1.11,7.36-2.3,11.4-2.3,13.9,0,25.59,7.49,32.88,18.2,4.41,6.47,7.58,13.84,7.58,22.23,0,17.83-11.83,32.55-27.92,37.89-.87.29-1.85.32-2.75.56-3.21.82-6.32,1.98-9.79,1.98-8.31,0-15.6-3.12-22.01-7.44-10.76-7.21-18.24-18.84-18.35-32.68,0-.11-.07-.21-.07-.32,0-18.24,12.38-33.11,29.03-38.13ZM552.04,422.94c0,22.33-18.13,40.48-40.43,40.48-18.47,0-33.45-12.7-38.26-29.65,5.13-7.06,8.97-15,11.62-23.52,10.29-.65,20.06-3.07,28.96-7.22,10.6,9.61,23.54,16.64,38.05,19.59,0,.12.07.21.07.32ZM487.36,345.98c.26,7.62,1.72,14.88,3.96,21.83-1.42.42-2.91.62-4.38.89-2.38.44-4.55,1.43-7.05,1.43-8.31,0-15.6-3.12-22.03-7.44-3.2-2.14-6.1-4.47-8.57-7.44,3.65-9.21,5.81-19.18,5.81-29.69,0-1.83-.42-3.55-.54-5.34-.44-6.48-1.63-12.71-3.51-18.71,7.34-7.51,17.52-12.25,28.84-12.25,8.31,0,15.61,3.12,22.04,7.44-9.29,13.19-14.84,29.17-14.84,46.49,0,.95.25,1.84.28,2.79ZM658.65,296.78c-7.67,0-14.96,1.42-22,3.43-14.38-22.8-39.6-38.09-68.49-38.09-12.18,0-23.64,2.9-34.03,7.74-14.39-13.06-33.31-21.23-54.24-21.23-19.14,0-36.53,6.95-50.42,18.1-14.53-13.72-33.97-22.28-55.47-22.28-44.29,0-80.31,35.77-80.96,79.95-32.33,6.09-57.96,31.32-64.46,63.49-2.77-.75-5.52-1.43-8.37-1.89,6.99-143,124.53-257.5,269.23-257.5s261.94,114.24,269.18,257.01c-5.5-1.19-11.21-1.88-17.07-1.88-.82,0-1.59.21-2.41.24.16-2,.61-3.92.61-5.95,0-44.72-36.38-81.13-81.1-81.13ZM218.88,478.67v-50.99c5.41,1.65,10.29,4.21,14.47,7.83,3.02,7.12,7.3,13.48,12.15,19.4,8.9,10.91,20.9,18.67,34.25,23.76h-60.87ZM368.88,456.95c11.63,6.44,24.79,10.44,39,10.44,11.5,0,22.41-2.47,32.32-6.8,3.51,6.63,7.95,12.67,13.06,18.07h-114.96c11.77-4.9,22.29-12.21,30.57-21.71ZM592.52,424.51c14.7,20.78,38.8,34.46,66.12,34.46.82,0,1.59-.21,2.41-.24-.16,2-.61,3.92-.61,5.95,0,4.79.62,9.42,1.42,13.97h-91.78c13.47-14.21,22.03-33.15,22.44-54.15ZM701.09,464.69c0-9.61,3.85-18.07,9.47-25.02,2.62-2.21,5.16-4.47,7.49-7,6.71-4.92,14.55-8.41,23.5-8.41,6.75,0,12.85,2.08,18.44,5.01v49.39h-56.08c-1.63-4.39-2.82-9.02-2.82-13.97ZM40.64,546.3c0-14.87,12.09-26.99,26.96-26.99h843.68c14.87,0,26.96,12.12,26.96,26.99s-12.09,26.94-26.96,26.94H67.61c-14.87,0-26.96-12.07-26.96-26.94ZM93.62,613.88h792.14l-40.48,378.54c-1.8,17.36-16.35,30.48-33.82,30.48H175.48c-17.12,0-31.62-12.81-33.74-29.85l-48.13-379.17Z"/>
  <path class="cls-1" d="M176.91,898.59c-11.22,0-20.32,9.1-20.32,20.32s9.1,20.32,20.32,20.32h33.66v33.92c0,11.22,9.1,20.32,20.32,20.32s20.32-9.1,20.32-20.32v-33.92h64.32v33.92c0,11.22,9.1,20.32,20.32,20.32s20.32-9.1,20.32-20.32v-33.92h64.32v33.92c0,11.22,9.1,20.32,20.32,20.32s20.32-9.1,20.32-20.32v-33.92h64.32v33.92c0,11.22,9.1,20.32,20.32,20.32s20.32-9.1,20.32-20.32v-33.92h64.32v33.92c0,11.22,9.1,20.32,20.32,20.32s20.32-9.1,20.32-20.32v-33.92h64.3v33.92c0,11.22,9.1,20.32,20.32,20.32s20.32-9.1,20.32-20.32v-33.92h33.68c11.22,0,20.32-9.1,20.32-20.32s-9.1-20.32-20.32-20.32h-33.68v-59.85h33.68c11.22,0,20.32-9.1,20.32-20.32s-9.1-20.32-20.32-20.32h-33.68v-59.85h33.68c11.22,0,20.32-9.1,20.32-20.32s-9.1-20.32-20.32-20.32h-33.68v-46.46c0-11.22-9.1-20.32-20.32-20.32s-20.32,9.1-20.32,20.32v46.46h-64.3v-46.46c0-11.22-9.1-20.32-20.32-20.32s-20.32,9.1-20.32,20.32v46.46h-64.32v-46.46c0-11.22-9.1-20.32-20.32-20.32s-20.32,9.1-20.32,20.32v46.46h-64.32v-46.46c0-11.22-9.1-20.32-20.32-20.32s-20.32,9.1-20.32,20.32v46.46h-64.32v-46.46c0-11.22-9.1-20.32-20.32-20.32s-20.32,9.1-20.32,20.32v46.46h-64.32v-46.46c0-11.22-9.1-20.32-20.32-20.32s-20.32,9.1-20.32,20.32v46.46h-33.66c-11.22,0-20.32,9.1-20.32,20.32s9.1,20.32,20.32,20.32h33.66v59.85h-33.66c-11.22,0-20.32,9.1-20.32,20.32s9.1,20.32,20.32,20.32h33.66v59.85h-33.66ZM356.18,898.59v-59.85h64.32v59.85h-64.32ZM461.15,898.59v-59.85h64.32v59.85h-64.32ZM566.12,898.59v-59.85h64.32v59.85h-64.32ZM735.38,898.59h-64.3v-59.85h64.3v59.85ZM735.38,738.24v59.85h-64.3v-59.85h64.3ZM630.44,738.24v59.85h-64.32v-59.85h64.32ZM525.47,738.24v59.85h-64.32v-59.85h64.32ZM420.51,738.24v59.85h-64.32v-59.85h64.32ZM251.21,738.24h64.32v59.85h-64.32v-59.85ZM251.21,838.74h64.32v59.85h-64.32v-59.85Z"/>
</svg>